<?xml version="1.0" encoding="UTF-8" standalone="no"?>
<!-- Created with Inkscape (http://www.inkscape.org/) -->

<svg
   xmlns:dc="http://purl.org/dc/elements/1.1/"
   xmlns:cc="http://creativecommons.org/ns#"
   xmlns:rdf="http://www.w3.org/1999/02/22-rdf-syntax-ns#"
   xmlns:svg="http://www.w3.org/2000/svg"
   xmlns="http://www.w3.org/2000/svg"
   xmlns:sodipodi="http://sodipodi.sourceforge.net/DTD/sodipodi-0.dtd"
   xmlns:inkscape="http://www.inkscape.org/namespaces/inkscape"
   id="svg2"
   version="1.1"
   inkscape:version="0.48.4 r9939"
   width="112.14"
   height="225.78"
   xml:space="preserve"
   sodipodi:docname="half-gear.svg"><metadata
     id="metadata8"><rdf:RDF><cc:Work
         rdf:about=""><dc:format>image/svg+xml</dc:format><dc:type
           rdf:resource="http://purl.org/dc/dcmitype/StillImage" /><dc:title></dc:title></cc:Work></rdf:RDF></metadata><defs
     id="defs6"><linearGradient
       x1="0"
       y1="0"
       x2="1"
       y2="0"
       gradientUnits="userSpaceOnUse"
       gradientTransform="matrix(536.913,0,0,-771.018,-1.53e-6,769.018)"
       spreadMethod="pad"
       id="linearGradient14"><stop
         style="stop-opacity:1;stop-color:#d0d0d0"
         offset="0"
         id="stop16" /><stop
         style="stop-opacity:1;stop-color:#efefef"
         offset="1"
         id="stop18" /></linearGradient><clipPath
       clipPathUnits="userSpaceOnUse"
       id="clipPath26"><path
         d="M 1060.74,5980.36 958.871,5744.79 c -27.156,-62.79 -96.516,-51.84 -102.98,16.28 l -24.258,255.65 c -68.5,23.88 -131.817,58.76 -187.84,102.48 L 414.348,5999.18 c -60.614,-31.7 -107.618,20.47 -69.774,77.46 l 143.567,216.26 c -36.786,59.6 -64.344,125.56 -80.649,195.83 l -255.289,51.4 c -67.0663,13.51 -70.7694,83.64 -5.488,104.12 l 249.148,78.17 c 9.297,72.54 30.43,141.41 61.395,204.59 l -162.887,203.95 c -42.695,53.46 -0.441,109.55 62.719,83.28 l 238.422,-99.15 c 51.621,48.98 111.218,89.7 176.664,119.99 l 1.742,258.29 c 0.465,68.41 68.59,85.42 101.144,25.24 l 121.739,-224.95 c 16.949,1.3 34.089,1.98 51.369,1.98 57.44,0 113.24,-7.38 166.44,-21.26 l 166.55,195.78 c 44.33,52.12 107.45,21.36 93.72,-45.68 l -50.61,-246.93 c 59.69,-41.66 112.12,-92.97 155.07,-151.68 l 248.36,51.04 c 67.01,13.78 97.81,-49.33 45.73,-93.69 l -192.82,-164.2 c 16.47,-57.58 25.27,-118.35 25.27,-181.09 0,-13.4 -0.4,-26.71 -1.19,-39.92 l 223.76,-120.92 c 60.18,-32.52 43.21,-100.66 -25.2,-101.16 l -252.46,-1.85 c -29.79,-67.96 -70.72,-129.87 -120.44,-183.45 l 97.92,-235.04 c 26.29,-63.16 -29.77,-105.43 -83.25,-62.76 l -198.87,158.63 c -86,-43.78 -182.88,-69.18 -285.41,-71.1 l 0,0 z m -87.435,234.32 c 21.238,-3.93 38.135,10.14 38.135,31.74 l 0,162.85 c 0,10.51 -12.467,27.58 -22.483,30.77 -128.344,40.82 -116.734,153.57 -164.402,153.57 l -163.367,0 c -21.848,0 -35.868,-17.02 -31.692,-38.45 33.66,-172.71 170.516,-308.46 343.809,-340.48 l 0,0 z m 148.265,227.57 c -9.3,-3.31 -21.47,-20.55 -21.47,-30.42 l 0,-163.93 c 0,-22.09 17.13,-36.06 38.76,-31.62 169.39,34.73 302.46,168.9 335.59,338.88 4.18,21.43 -9.84,38.45 -31.68,38.45 l -163.38,0 c -46.83,0 -35.57,-107.9 -157.82,-151.36 l 0,0 z m -492.074,278.47 c -4.176,-21.45 9.844,-38.46 31.692,-38.46 l 163.367,0 c 10.187,0 27.347,12.33 30.593,21.99 43.098,128.01 156.292,114.05 156.292,162.35 l 0,162.84 c 0,97.58 -327.522,-29.45 -381.944,-308.72 l 0,0 z m 813.274,-38.46 c 21.84,0 35.86,17.01 31.68,38.46 -33.13,169.97 -166.2,304.14 -335.59,338.87 -21.63,4.44 -38.76,-9.54 -38.76,-31.63 l 0,-163.92 c 0,-9.87 12.17,-27.12 21.47,-30.42 122.25,-43.46 110.99,-151.36 157.82,-151.36 l 163.38,0 0,0 z m -390.79,-181.69 c 75.86,0 137.36,61.5 137.36,137.36 0,75.87 -61.5,137.38 -137.36,137.38 -75.882,0 -137.378,-61.51 -137.378,-137.38 0,-75.86 61.496,-137.36 137.378,-137.36 l 0,0"
         id="path28"
         inkscape:connector-curvature="0" /></clipPath><linearGradient
       x1="0"
       y1="0"
       x2="1"
       y2="0"
       gradientUnits="userSpaceOnUse"
       gradientTransform="matrix(130.166,130.166,138.264,-138.264,-31.3882,666.099)"
       spreadMethod="pad"
       id="linearGradient30"><stop
         style="stop-opacity:1;stop-color:#231f20"
         offset="0"
         id="stop32" /><stop
         style="stop-opacity:1;stop-color:#a3a1a1"
         offset="1"
         id="stop34" /></linearGradient><clipPath
       clipPathUnits="userSpaceOnUse"
       id="clipPath44"><path
         d="m 3754.05,1973.75 c 3.15,68.07 2.29,136.3 -2.6,204.32 20.16,3.92 304.85,7.22 280.41,132.95 -80.68,415.09 0.26,401.96 -378.24,328.39 -23.58,65.25 -51.23,129.38 -82.97,191.99 17.7,11.94 276.26,125.18 204.85,231.05 -235.46,349.09 -156.63,370.24 -473.95,156.21 -9.33,10.13 -18.79,20.16 -28.41,30.13 -39.6,41 -80.75,79.61 -123.25,115.82 12.13,18.69 204,221.87 97.29,291.19 -350.87,227.85 -288.67,279.9 -494.88,-37.64 -63.4,29.02 -128.21,54 -194.04,74.92 4.74,24.44 103.72,277.08 -19.91,301.12 -411.19,79.92 -372.51,151.32 -444.91,-221.14 -72.61,2.42 -145.37,0.28 -217.79,-6.45 -4.77,19.12 -23.17,305.71 -147.83,274.63 -402.52,-100.36 -401.68,-19.8 -311.34,-382.13 -65.15,-25.09 -129.1,-54.32 -191.44,-87.66 -10.6,14.05 -142.42,276.12 -245.79,198.23 -333.145,-251.04 -359.664,-173.82 -138.348,-478.43 -47.519,-45.88 -91.828,-93.85 -132.91,-143.61 -17.605,11.43 -223.687,205.93 -293.336,98.68 -231.066,-355.79 -279.261,-289.07 45.942,-500.26 -28.832,-65.69 -53.379,-132.83 -73.614,-200.98 -14.257,2.01 -301.6363,96.79 -319.8434,-32.8 -58.69138,-417.57 -131.2734,-379.97 248.7034,-433.37 -0.981,-67.58 1.992,-135.21 8.933,-202.54 -12.57,-3.14 -318.5895,-23.28 -286.7809,-150.86 102.8749,-412.62 21.0859,-401.35 398.9219,-307.15 24.98,-62.92 53.832,-124.68 86.555,-184.92 -7.489,-5.64 -289.981,-148.42 -209.961,-254.628 262.402,-348.214 190.547,-357.503 490.285,-125.187 -1.774,1.816 -3.594,3.563 -5.363,5.383 -14.817,15.351 22.48,7.867 5.363,-5.383 47.656,-48.926 97.476,-94.488 149.238,-136.523 -3.219,-5.567 -212.406,-253.594 -96.234,-320.676 371.729,-214.617 303.939,-262.625 499.819,76.652 61.34,-26.332 123.91,-48.933 187.36,-67.793 -1.09,-7.726 -101.1,-312.5584 31.21,-331.16 425.9,-59.8516 380.21,-129.5352 434.93,259.844 66.42,-0.996 132.9,1.847 199.09,8.504 2.18,-8.778 23.34,-325.4886 152.48,-293.2933 417.56,104.1093 401.04,22.3594 305.81,404.3403 61.7,24.328 122.29,52.359 181.44,84.117 6.72,-9.254 141.95,-289.145 248.82,-211.492 348.26,253.015 362.84,170.511 132.91,490.398 36.82,35.559 71.71,72.363 104.67,110.277 10.87,-7.062 234.27,-217.097 305.87,-106.828 233.09,358.908 278.31,289.688 -48.37,501.848 28.91,61.5 53.97,124.39 75.21,188.27 17.1,-3.32 290.88,-110.04 315.6,17.1 80.91,416.2 150.66,372.63 -229.6,446.54 z m -2424,1132.58 c 446.9,302.94 1042.01,288.98 1474.41,-36.46 12.29,-9.26 13.28,-25.28 2.2,-35.97 l -385.28,-372.07 c -5.94,-5.73 -21.37,-7.55 -28.48,-3.37 -203.45,119.76 -455.47,127.02 -665.19,20.25 -7.01,-3.58 -22.31,-1.01 -27.78,4.65 l -373.63,386.91 c -10.88,11.26 -9.22,27.27 3.75,36.06 z m 900.69,-1243.08 c -108.07,-104.36 -280.27,-101.34 -384.63,6.71 -104.36,108.08 -101.35,280.27 6.71,384.63 108.07,104.36 280.27,101.36 384.63,-6.71 104.36,-108.07 101.35,-280.27 -6.71,-384.63 z M 1035.48,1323.51 c -11.07,-10.7 -27.04,-9.15 -35.875,3.47 -311.914,446.01 -303.23,1045.52 20.515,1482.22 9.25,12.47 25.29,13.51 36.08,2.34 l 375.03,-388.36 c 5.44,-5.63 7.49,-21.02 3.7,-27.88 -113.23,-205.58 -114.49,-457.01 -2.17,-664.03 3.93,-7.25 1.56,-22.61 -4.37,-28.34 l -392.91,-379.42 z m 1725.49,-317.04 c -440.15,-303.068 -1026.9,-296.361 -1459.77,14.88 -12.83,9.22 -14,25.29 -2.63,36.27 l 397.89,384.24 c 5.36,5.18 20.71,7.42 27.34,4 196.74,-101.7 432.45,-103.07 630.65,-2.76 6.99,3.54 22.3,0.96 27.74,-4.68 l 382.38,-395.98 c 10.79,-11.17 9.19,-27.15 -3.6,-35.97 z m 307.77,299.37 c -9.24,-12.65 -25.29,-13.75 -36.17,-2.49 l -380.98,394.52 c -5.47,5.67 -7.5,21.05 -3.68,27.93 107.94,194.86 115.07,431.16 20.06,631.83 -3.19,6.74 -0.41,22 4.96,27.18 l 390.27,376.88 c 11.37,10.98 27.4,9.25 36.17,-3.89 294.23,-440.92 282.3,-1023.35 -30.63,-1451.96 z m -516.22,223.73 c 9.78,9.79 32.72,2.72 51.22,-15.78 l 287.52,-287.52 c 18.51,-18.5 25.57,-41.45 15.78,-51.23 -9.79,-9.8 -32.72,-2.73 -51.23,15.78 l -287.52,287.52 c -18.5,18.5 -25.57,41.44 -15.77,51.23 l 0,0 z M 1182.08,2941.79 c 9.79,9.78 32.73,2.72 51.23,-15.78 l 287.52,-287.53 c 18.51,-18.5 25.56,-41.43 15.78,-51.23 -9.8,-9.79 -32.73,-2.72 -51.23,15.78 l -287.52,287.52 c -18.51,18.5 -25.57,41.44 -15.78,51.24 l 0,0 z m 1756.21,-37.61 c 9.79,-9.79 2.73,-32.72 -15.77,-51.23 L 2635,2565.43 c -18.51,-18.5 -41.44,-25.57 -51.23,-15.78 -9.79,9.8 -2.73,32.73 15.78,51.23 l 287.52,287.52 c 18.5,18.51 41.43,25.57 51.22,15.78 l 0,0 z M 1521.9,1529.57 c 9.79,-9.79 2.73,-32.73 -15.78,-51.23 l -287.51,-287.52 c -18.51,-18.51 -41.44,-25.58 -51.23,-15.78 -9.79,9.78 -2.73,32.73 15.77,51.23 l 287.52,287.52 c 18.51,18.5 41.45,25.57 51.23,15.78 l 0,0"
         clip-rule="evenodd"
         id="path46"
         inkscape:connector-curvature="0" /></clipPath><linearGradient
       x1="0"
       y1="0"
       x2="1"
       y2="0"
       gradientUnits="userSpaceOnUse"
       gradientTransform="matrix(402.752,0,0,-424.093,1.9793,416.552)"
       spreadMethod="pad"
       id="linearGradient48"><stop
         style="stop-opacity:1;stop-color:#3f3c3d"
         offset="0"
         id="stop50" /><stop
         style="stop-opacity:1;stop-color:#a3a1a1"
         offset="1"
         id="stop52" /></linearGradient><clipPath
       clipPathUnits="userSpaceOnUse"
       id="clipPath62"><path
         d="m 1884.5,4666.27 c 1.55,33.52 1.13,67.12 -1.28,100.62 9.93,1.93 150.16,3.55 138.12,65.49 -39.74,204.45 0.13,197.98 -186.3,161.74 -11.62,32.14 -25.24,63.73 -40.87,94.57 8.72,5.87 136.07,61.65 100.9,113.8 -115.98,171.94 -77.15,182.37 -233.45,76.94 -4.58,5 -9.25,9.93 -13.98,14.84 -19.51,20.2 -39.77,39.21 -60.71,57.05 5.98,9.2 100.48,109.28 47.91,143.42 -172.82,112.24 -142.18,137.87 -243.74,-18.53 -31.23,14.29 -63.14,26.59 -95.58,36.9 2.34,12.04 51.08,136.48 -9.81,148.31 -202.52,39.38 -183.47,74.54 -219.13,-108.92 -35.77,1.2 -71.611,0.14 -107.275,-3.17 -2.348,9.41 -11.41,150.58 -72.825,135.26 -198.246,-49.42 -197.843,-9.75 -153.339,-188.21 -32.09,-12.36 -63.586,-26.76 -94.289,-43.18 -5.227,6.92 -70.149,136 -121.067,97.64 -164.097,-123.65 -177.14,-85.61 -68.144,-235.64 -23.399,-22.61 -45.219,-46.24 -65.457,-70.75 -8.672,5.63 -110.176,101.43 -144.493,48.62 -113.808,-175.25 -137.546,-142.39 22.637,-246.41 -14.203,-32.36 -26.297,-65.42 -36.262,-99 -7.011,1 -148.566,47.68 -157.5426,-16.15 -28.9062,-205.67 -64.65621,-187.15 122.5076,-213.45 -0.492,-33.29 0.977,-66.6 4.399,-99.77 -6.192,-1.54 -156.9261,-11.47 -141.2581,-74.29 50.6801,-203.24 10.3906,-197.7 196.4881,-151.3 12.313,-30.99 26.52,-61.4 42.649,-91.08 -3.704,-2.78 -142.844,-73.11 -103.422,-125.41 129.23,-171.52 93.847,-176.09 241.484,-61.66 -0.879,0.88 -1.777,1.74 -2.644,2.66 -7.297,7.55 11.07,3.86 2.644,-2.66 23.469,-24.1 48.008,-46.55 73.5,-67.25 -1.582,-2.74 -104.613,-124.91 -47.398,-157.94 183.101,-105.72 149.699,-129.37 246.187,37.74 30.211,-12.97 61.024,-24.1 92.289,-33.39 -0.543,-3.8 -49.804,-153.94 15.356,-163.09 209.785,-29.5 187.277,-63.82 214.245,127.97 32.7,-0.48 65.45,0.91 98.05,4.2 1.07,-4.33 11.49,-160.33 75.1,-144.47 205.67,51.28 197.53,11.01 150.62,199.16 30.39,11.98 60.24,25.78 89.38,41.43 3.31,-4.56 69.91,-142.42 122.56,-104.17 171.53,124.61 178.7,83.97 65.45,241.54 18.15,17.51 35.32,35.65 51.55,54.32 5.36,-3.48 115.4,-106.93 150.67,-52.62 114.8,176.78 137.08,142.68 -23.82,247.18 14.23,30.29 26.58,61.27 37.03,92.74 8.42,-1.64 143.28,-54.21 155.45,8.42 39.85,205 74.22,183.54 -113.09,219.95 z M 690.57,5224.11 c 220.121,149.22 513.25,142.34 726.22,-17.96 6.05,-4.56 6.53,-12.45 1.09,-17.72 l -189.77,-183.25 c -2.93,-2.83 -10.54,-3.73 -14.04,-1.68 -100.2,59 -224.34,62.57 -327.629,9.97 -3.449,-1.75 -11,-0.49 -13.687,2.3 l -184.035,190.58 c -5.352,5.54 -4.531,13.42 1.851,17.76 z m 443.63,-612.28 c -53.23,-51.4 -138.044,-49.92 -189.45,3.31 -51.398,53.24 -49.91,138.05 3.312,189.45 53.218,51.41 138.048,49.92 189.448,-3.3 51.4,-53.24 49.92,-138.06 -3.31,-189.46 z M 545.48,4345.98 c -5.453,-5.27 -13.32,-4.5 -17.671,1.72 -153.621,219.68 -149.356,514.96 10.105,730.05 4.555,6.15 12.461,6.66 17.774,1.15 l 184.726,-191.28 c 2.66,-2.76 3.68,-10.34 1.809,-13.73 -55.77,-101.26 -56.387,-225.1 -1.059,-327.07 1.938,-3.55 0.766,-11.14 -2.156,-13.94 L 545.48,4345.98 z m 849.88,-156.14 c -216.78,-149.3 -505.786,-145.99 -719.005,7.32 -6.32,4.54 -6.89,12.46 -1.293,17.87 l 195.989,189.26 c 2.637,2.53 10.195,3.64 13.457,1.95 96.902,-50.09 213.012,-50.77 310.622,-1.36 3.45,1.74 10.99,0.47 13.67,-2.3 l 188.34,-195.04 c 5.31,-5.49 4.53,-13.37 -1.78,-17.7 z m 151.6,147.44 c -4.56,-6.23 -12.46,-6.77 -17.83,-1.23 l -187.64,194.33 c -2.69,2.79 -3.69,10.36 -1.81,13.76 53.16,95.98 56.68,212.36 9.88,311.19 -1.58,3.32 -0.21,10.85 2.44,13.4 l 192.23,185.63 c 5.6,5.41 13.5,4.56 17.81,-1.92 144.92,-217.17 139.05,-504.05 -15.08,-715.16 z m -254.26,110.2 c 4.82,4.81 16.1,1.35 25.22,-7.77 l 141.62,-141.62 c 9.12,-9.12 12.59,-20.41 7.77,-25.23 -4.82,-4.82 -16.11,-1.34 -25.23,7.78 l -141.62,141.6 c -9.12,9.12 -12.58,20.42 -7.76,25.24 l 0,0 z m -675.009,695.58 c 4.817,4.83 16.11,1.35 25.227,-7.77 l 141.621,-141.62 c 9.125,-9.12 12.598,-20.42 7.77,-25.24 -4.817,-4.81 -16.11,-1.34 -25.235,7.78 l -141.609,141.62 c -9.125,9.1 -12.598,20.4 -7.774,25.23 l 0,0 z m 865.009,-18.53 c 4.82,-4.81 1.35,-16.11 -7.77,-25.23 l -141.62,-141.61 c -9.11,-9.12 -20.41,-12.6 -25.23,-7.77 -4.81,4.83 -1.33,16.11 7.78,25.23 l 141.61,141.61 c 9.12,9.13 20.41,12.6 25.23,7.77 l 0,0 z M 785.066,4447.48 c 4.825,-4.82 1.352,-16.12 -7.769,-25.24 L 635.68,4280.64 c -9.11,-9.12 -20.418,-12.6 -25.235,-7.78 -4.824,4.82 -1.34,16.11 7.774,25.23 l 141.621,141.62 c 9.109,9.12 20.414,12.58 25.226,7.77 l 0,0"
         clip-rule="evenodd"
         id="path64"
         inkscape:connector-curvature="0" /></clipPath><linearGradient
       x1="0"
       y1="0"
       x2="1"
       y2="0"
       gradientUnits="userSpaceOnUse"
       gradientTransform="matrix(198.374,0,0,-210.916,4.5205,575.596)"
       spreadMethod="pad"
       id="linearGradient66"><stop
         style="stop-opacity:1;stop-color:#231f20"
         offset="0"
         id="stop68" /><stop
         style="stop-opacity:1;stop-color:#ffffff"
         offset="1"
         id="stop70" /></linearGradient><clipPath
       clipPathUnits="userSpaceOnUse"
       id="clipPath78"><path
         d="m 5108.57,3156.12 c 1.41,30.5 1.03,61.09 -1.16,91.58 9.04,1.75 136.64,3.22 125.69,59.59 -36.17,186.05 0.11,180.17 -169.55,147.2 -10.57,29.24 -22.96,57.99 -37.18,86.05 7.93,5.35 123.83,56.11 91.82,103.57 -105.55,156.48 -70.21,165.97 -212.44,70.02 -4.19,4.54 -8.43,9.04 -12.73,13.51 -17.76,18.38 -36.2,35.68 -55.26,51.91 5.45,8.38 91.44,99.45 43.61,130.52 -157.28,102.14 -129.39,125.46 -221.82,-16.86 -28.42,13 -57.47,24.2 -86.98,33.58 2.13,10.95 46.48,124.2 -8.93,134.97 -184.3,35.83 -166.96,67.83 -199.42,-99.12 -32.55,1.09 -65.17,0.12 -97.63,-2.89 -2.13,8.56 -10.38,137.03 -66.26,123.1 -180.42,-44.98 -180.05,-8.88 -139.56,-171.28 -29.19,-11.26 -57.86,-24.36 -85.81,-39.3 -4.74,6.3 -63.82,123.77 -110.17,88.85 -149.33,-112.52 -161.21,-77.9 -62.01,-214.44 -21.29,-20.57 -41.16,-42.08 -59.57,-64.38 -7.89,5.12 -100.27,92.31 -131.5,44.24 -103.57,-159.49 -125.16,-129.59 20.6,-224.25 -12.92,-29.44 -23.92,-59.54 -33,-90.09 -6.38,0.91 -135.2,43.39 -143.37,-14.7 -26.3,-187.17 -58.84,-170.32 111.49,-194.25 -0.45,-30.29 0.89,-60.61 4,-90.79 -5.63,-1.41 -142.81,-10.44 -128.55,-67.61 46.12,-184.96 9.46,-179.91 178.82,-137.69 11.2,-28.2 24.13,-55.87 38.8,-82.89 -3.36,-2.52 -129.99,-66.54 -94.11,-114.12 117.61,-156.1 85.4,-160.26 219.76,-56.12 -0.8,0.81 -1.61,1.59 -2.41,2.42 -6.63,6.87 10.08,3.51 2.41,-2.42 21.36,-21.93 43.69,-42.36 66.9,-61.2 -1.44,-2.49 -95.21,-113.67 -43.14,-143.73 166.63,-96.21 136.23,-117.73 224.04,34.34 27.49,-11.8 55.53,-21.92 83.98,-30.38 -0.48,-3.46 -45.31,-140.1 13.99,-148.44 190.9,-26.83 170.42,-58.06 194.96,116.47 29.77,-0.44 59.57,0.84 89.24,3.82 0.96,-3.93 10.45,-145.91 68.34,-131.47 187.17,46.67 179.76,10.02 137.08,181.24 27.65,10.91 54.82,23.46 81.32,37.71 3.02,-4.15 63.64,-129.61 111.54,-94.8 156.1,113.4 162.64,76.43 59.57,219.81 16.51,15.94 32.15,32.44 46.92,49.44 4.87,-3.17 105,-97.31 137.11,-47.89 104.47,160.88 124.75,129.85 -21.68,224.95 12.95,27.56 24.19,55.75 33.71,84.4 7.66,-1.49 130.39,-49.34 141.46,7.65 36.27,186.56 67.54,167.03 -102.92,200.17 z m -1086.53,507.67 c 200.32,135.78 467.07,129.52 660.89,-16.35 5.5,-4.15 5.95,-11.33 0.99,-16.13 l -172.7,-166.77 c -2.67,-2.57 -9.58,-3.39 -12.77,-1.52 -91.2,53.69 -204.16,56.94 -298.16,9.07 -3.15,-1.59 -10.01,-0.45 -12.46,2.09 l -167.47,173.44 c -4.88,5.05 -4.14,12.22 1.68,16.17 z m 403.72,-557.21 c -48.44,-46.78 -125.63,-45.43 -172.41,3.01 -46.76,48.45 -45.42,125.64 3.02,172.41 48.43,46.79 125.63,45.43 172.41,-3.02 46.77,-48.44 45.43,-125.62 -3.02,-172.4 z M 3890,2864.64 c -4.96,-4.78 -12.12,-4.09 -16.08,1.56 -139.81,199.92 -135.92,468.64 9.2,664.39 4.14,5.6 11.33,6.07 16.17,1.05 l 168.1,-174.07 c 2.43,-2.52 3.36,-9.43 1.66,-12.5 -50.76,-92.16 -51.32,-204.86 -0.97,-297.65 1.76,-3.24 0.7,-10.13 -1.96,-12.7 L 3890,2864.64 z m 773.43,-142.1 c -197.28,-135.86 -460.3,-132.85 -654.33,6.66 -5.75,4.15 -6.28,11.34 -1.18,16.26 l 178.36,172.24 c 2.4,2.32 9.28,3.32 12.26,1.78 88.17,-45.58 193.84,-46.2 282.67,-1.23 3.14,1.59 10,0.43 12.43,-2.1 l 171.41,-177.49 c 4.84,-5.01 4.12,-12.17 -1.62,-16.12 z m 137.96,134.19 c -4.15,-5.67 -11.34,-6.16 -16.22,-1.12 l -170.76,176.84 c -2.45,2.55 -3.37,9.44 -1.65,12.52 48.38,87.35 51.58,193.27 8.99,283.21 -1.43,3.02 -0.19,9.87 2.22,12.19 l 174.93,168.93 c 5.11,4.92 12.3,4.15 16.21,-1.75 131.89,-197.64 126.55,-458.71 -13.72,-650.82 z M 4570,2957.02 c 4.39,4.37 14.66,1.22 22.96,-7.09 l 128.88,-128.87 c 8.29,-8.29 11.45,-18.58 7.07,-22.96 -4.39,-4.39 -14.66,-1.22 -22.96,7.07 l -128.88,128.87 c -8.3,8.3 -11.46,18.59 -7.07,22.98 l 0,0 z m -614.29,633 c 4.39,4.39 14.66,1.23 22.96,-7.07 l 128.88,-128.88 c 8.31,-8.29 11.47,-18.58 7.07,-22.97 -4.38,-4.38 -14.66,-1.22 -22.97,7.08 l -128.86,128.88 c -8.31,8.29 -11.46,18.56 -7.08,22.96 l 0,0 z m 787.2,-16.86 c 4.39,-4.37 1.23,-14.66 -7.06,-22.95 l -128.89,-128.88 c -8.29,-8.3 -18.57,-11.47 -22.95,-7.08 -4.39,4.4 -1.22,14.67 7.07,22.97 l 128.87,128.87 c 8.3,8.3 18.58,11.46 22.96,7.07 l 0,0 z m -634.87,-616.14 c 4.38,-4.39 1.22,-14.68 -7.08,-22.98 l -128.87,-128.87 c -8.3,-8.29 -18.59,-11.46 -22.97,-7.07 -4.39,4.38 -1.22,14.67 7.08,22.96 l 128.88,128.87 c 8.29,8.31 18.57,11.46 22.96,7.09 l 0,0"
         clip-rule="evenodd"
         id="path80"
         inkscape:connector-curvature="0" /></clipPath><linearGradient
       x1="0"
       y1="0"
       x2="1"
       y2="0"
       gradientUnits="userSpaceOnUse"
       gradientTransform="matrix(180.531,0,0,-192.303,343.472,414.959)"
       spreadMethod="pad"
       id="linearGradient82"><stop
         style="stop-opacity:1;stop-color:#231f20"
         offset="0"
         id="stop84" /><stop
         style="stop-opacity:1;stop-color:#a3a1a1"
         offset="1"
         id="stop86" /></linearGradient><clipPath
       clipPathUnits="userSpaceOnUse"
       id="clipPath3110"><rect
         style="fill:#ffffff"
         id="rect3112"
         width="3219.5122"
         height="3424.3901"
         x="3735.3862"
         y="-5404.606"
         transform="matrix(0.9858196,-0.1678086,-0.1678086,-0.9858196,0,0)" /></clipPath></defs><sodipodi:namedview
     pagecolor="#ffffff"
     bordercolor="#666666"
     borderopacity="1"
     objecttolerance="10"
     gridtolerance="10"
     guidetolerance="10"
     inkscape:pageopacity="0"
     inkscape:pageshadow="2"
     inkscape:window-width="1430"
     inkscape:window-height="920"
     id="namedview4"
     showgrid="false"
     inkscape:zoom="0.82"
     inkscape:cx="335.56876"
     inkscape:cy="430.60702"
     inkscape:window-x="60"
     inkscape:window-y="24"
     inkscape:window-maximized="0"
     inkscape:current-layer="g10" /><g
     id="g10"
     inkscape:groupmode="layer"
     inkscape:label="ink_ext_XXXXXX"
     transform="matrix(1.25,0,0,-1.25,0,225.75112)"><g
       id="g74"
       transform="matrix(-0.09858196,0.01678086,0.01678086,0.09858196,465.69274,-297.53382)"
       clip-path="url(#clipPath3110)"
       style="fill:#000000"><g
         clip-path="url(#clipPath78)"
         id="g76"
         style="fill:#000000"><path
           inkscape:connector-curvature="0"
           id="path88"
           style="fill:#000000;fill-opacity:1;fill-rule:nonzero;stroke:none"
           d="m 5108.57,3156.12 c 1.41,30.5 1.03,61.09 -1.16,91.58 9.04,1.75 136.64,3.22 125.69,59.59 -36.17,186.05 0.11,180.17 -169.55,147.2 -10.57,29.24 -22.96,57.99 -37.18,86.05 7.93,5.35 123.83,56.11 91.82,103.57 -105.55,156.48 -70.21,165.97 -212.44,70.02 -4.19,4.54 -8.43,9.04 -12.73,13.51 -17.76,18.38 -36.2,35.68 -55.26,51.91 5.45,8.38 91.44,99.45 43.61,130.52 -157.28,102.14 -129.39,125.46 -221.82,-16.86 -28.42,13 -57.47,24.2 -86.98,33.58 2.13,10.95 46.48,124.2 -8.93,134.97 -184.3,35.83 -166.96,67.83 -199.42,-99.12 -32.55,1.09 -65.17,0.12 -97.63,-2.89 -2.13,8.56 -10.38,137.03 -66.26,123.1 -180.42,-44.98 -180.05,-8.88 -139.56,-171.28 -29.19,-11.26 -57.86,-24.36 -85.81,-39.3 -4.74,6.3 -63.82,123.77 -110.17,88.85 -149.33,-112.52 -161.21,-77.9 -62.01,-214.44 -21.29,-20.57 -41.16,-42.08 -59.57,-64.38 -7.89,5.12 -100.27,92.31 -131.5,44.24 -103.57,-159.49 -125.16,-129.59 20.6,-224.25 -12.92,-29.44 -23.92,-59.54 -33,-90.09 -6.38,0.91 -135.2,43.39 -143.37,-14.7 -26.3,-187.17 -58.84,-170.32 111.49,-194.25 -0.45,-30.29 0.89,-60.61 4,-90.79 -5.63,-1.41 -142.81,-10.44 -128.55,-67.61 46.12,-184.96 9.46,-179.91 178.82,-137.69 11.2,-28.2 24.13,-55.87 38.8,-82.89 -3.36,-2.52 -129.99,-66.54 -94.11,-114.12 117.61,-156.1 85.4,-160.26 219.76,-56.12 -0.8,0.81 -1.61,1.59 -2.41,2.42 -6.63,6.87 10.08,3.51 2.41,-2.42 21.36,-21.93 43.69,-42.36 66.9,-61.2 -1.44,-2.49 -95.21,-113.67 -43.14,-143.73 166.63,-96.21 136.23,-117.73 224.04,34.34 27.49,-11.8 55.53,-21.92 83.98,-30.38 -0.48,-3.46 -45.31,-140.1 13.99,-148.44 190.9,-26.83 170.42,-58.06 194.96,116.47 29.77,-0.44 59.57,0.84 89.24,3.82 0.96,-3.93 10.45,-145.91 68.34,-131.47 187.17,46.67 179.76,10.02 137.08,181.24 27.65,10.91 54.82,23.46 81.32,37.71 3.02,-4.15 63.64,-129.61 111.54,-94.8 156.1,113.4 162.64,76.43 59.57,219.81 16.51,15.94 32.15,32.44 46.92,49.44 4.87,-3.17 105,-97.31 137.11,-47.89 104.47,160.88 124.75,129.85 -21.68,224.95 12.95,27.56 24.19,55.75 33.71,84.4 7.66,-1.49 130.39,-49.34 141.46,7.65 36.27,186.56 67.54,167.03 -102.92,200.17 z m -1086.53,507.67 c 200.32,135.78 467.07,129.52 660.89,-16.35 5.5,-4.15 5.95,-11.33 0.99,-16.13 l -172.7,-166.77 c -2.67,-2.57 -9.58,-3.39 -12.77,-1.52 -91.2,53.69 -204.16,56.94 -298.16,9.07 -3.15,-1.59 -10.01,-0.45 -12.46,2.09 l -167.47,173.44 c -4.88,5.05 -4.14,12.22 1.68,16.17 z m 403.72,-557.21 c -48.44,-46.78 -125.63,-45.43 -172.41,3.01 -46.76,48.45 -45.42,125.64 3.02,172.41 48.43,46.79 125.63,45.43 172.41,-3.02 46.77,-48.44 45.43,-125.62 -3.02,-172.4 z M 3890,2864.64 c -4.96,-4.78 -12.12,-4.09 -16.08,1.56 -139.81,199.92 -135.92,468.64 9.2,664.39 4.14,5.6 11.33,6.07 16.17,1.05 l 168.1,-174.07 c 2.43,-2.52 3.36,-9.43 1.66,-12.5 -50.76,-92.16 -51.32,-204.86 -0.97,-297.65 1.76,-3.24 0.7,-10.13 -1.96,-12.7 L 3890,2864.64 z m 773.43,-142.1 c -197.28,-135.86 -460.3,-132.85 -654.33,6.66 -5.75,4.15 -6.28,11.34 -1.18,16.26 l 178.36,172.24 c 2.4,2.32 9.28,3.32 12.26,1.78 88.17,-45.58 193.84,-46.2 282.67,-1.23 3.14,1.59 10,0.43 12.43,-2.1 l 171.41,-177.49 c 4.84,-5.01 4.12,-12.17 -1.62,-16.12 z m 137.96,134.19 c -4.15,-5.67 -11.34,-6.16 -16.22,-1.12 l -170.76,176.84 c -2.45,2.55 -3.37,9.44 -1.65,12.52 48.38,87.35 51.58,193.27 8.99,283.21 -1.43,3.02 -0.19,9.87 2.22,12.19 l 174.93,168.93 c 5.11,4.92 12.3,4.15 16.21,-1.75 131.89,-197.64 126.55,-458.71 -13.72,-650.82 z M 4570,2957.02 c 4.39,4.37 14.66,1.22 22.96,-7.09 l 128.88,-128.87 c 8.29,-8.29 11.45,-18.58 7.07,-22.96 -4.39,-4.39 -14.66,-1.22 -22.96,7.07 l -128.88,128.87 c -8.3,8.3 -11.46,18.59 -7.07,22.98 l 0,0 z m -614.29,633 c 4.39,4.39 14.66,1.23 22.96,-7.07 l 128.88,-128.88 c 8.31,-8.29 11.47,-18.58 7.07,-22.97 -4.38,-4.38 -14.66,-1.22 -22.97,7.08 l -128.86,128.88 c -8.31,8.29 -11.46,18.56 -7.08,22.96 l 0,0 z m 787.2,-16.86 c 4.39,-4.37 1.23,-14.66 -7.06,-22.95 l -128.89,-128.88 c -8.29,-8.3 -18.57,-11.47 -22.95,-7.08 -4.39,4.4 -1.22,14.67 7.07,22.97 l 128.87,128.87 c 8.3,8.3 18.58,11.46 22.96,7.07 l 0,0 z m -634.87,-616.14 c 4.38,-4.39 1.22,-14.68 -7.08,-22.98 l -128.87,-128.87 c -8.3,-8.29 -18.59,-11.46 -22.97,-7.07 -4.39,4.38 -1.22,14.67 7.08,22.96 l 128.88,128.87 c 8.29,8.31 18.57,11.46 22.96,7.09 l 0,0" /></g></g></g></svg>